<?xml version="1.0" encoding="UTF-8" standalone="no"?>
<!-- Created with Inkscape (http://www.inkscape.org/) -->

<svg
   width="1024"
   height="1024"
   viewBox="0 0 1024 1024"
   version="1.1"
   id="svg1"
   inkscape:version="1.4.2 (f4327f4, 2025-05-13)"
   sodipodi:docname="zombie sprite.svg"
   inkscape:export-filename="hero sprite.png"
   inkscape:export-xdpi="96"
   inkscape:export-ydpi="96"
   xmlns:inkscape="http://www.inkscape.org/namespaces/inkscape"
   xmlns:sodipodi="http://sodipodi.sourceforge.net/DTD/sodipodi-0.dtd"
   xmlns="http://www.w3.org/2000/svg"
   xmlns:svg="http://www.w3.org/2000/svg">
  <sodipodi:namedview
     id="namedview1"
     pagecolor="#ffffff"
     bordercolor="#000000"
     borderopacity="0.25"
     inkscape:showpageshadow="2"
     inkscape:pageopacity="0.0"
     inkscape:pagecheckerboard="0"
     inkscape:deskcolor="#d1d1d1"
     inkscape:document-units="mm"
     showgrid="true"
     inkscape:zoom="0.70710678"
     inkscape:cx="388.20162"
     inkscape:cy="543.76512"
     inkscape:window-width="1920"
     inkscape:window-height="1009"
     inkscape:window-x="1912"
     inkscape:window-y="-8"
     inkscape:window-maximized="1"
     inkscape:current-layer="layer2">
    <inkscape:grid
       id="grid1"
       units="px"
       originx="0"
       originy="0"
       spacingx="32"
       spacingy="32"
       empcolor="#0099e5"
       empopacity="0.30196078"
       color="#0099e5"
       opacity="0.14901961"
       empspacing="8"
       enabled="true"
       visible="true" />
  </sodipodi:namedview>
  <defs
     id="defs1" />
  <g
     inkscape:groupmode="layer"
     id="layer2"
     inkscape:label="Peasent"
     style="display:inline;fill:#c8ab37">
    <rect
       style="fill:#c8ab37"
       id="rect1"
       width="98.994949"
       height="96.166519"
       x="65.053825"
       y="96.166519" />
    <ellipse
       style="display:inline;fill:#668000"
       id="path9"
       cx="141.42134"
       cy="212.13203"
       rx="15.556349"
       ry="36.769554" />
    <ellipse
       style="display:inline;fill:#668000"
       id="path9-2"
       cx="90.074043"
       cy="212.28934"
       rx="15.556349"
       ry="36.769554" />
    <ellipse
       style="fill:#c8ab37;stroke-width:1.14665"
       id="path1"
       cx="116.67262"
       cy="185.26198"
       rx="50.204578"
       ry="24.04163" />
    <ellipse
       style="fill:#008000"
       id="path4"
       cx="170.41273"
       cy="147.78532"
       rx="10.606602"
       ry="48.790367" />
    <ellipse
       style="fill:#c8ab37"
       id="path3"
       cx="168.29141"
       cy="111.01576"
       rx="14.142136"
       ry="14.849242" />
    <ellipse
       style="fill:#c8ab37"
       id="path3-8"
       cx="62.026073"
       cy="110.72435"
       rx="14.142136"
       ry="14.849242" />
    <ellipse
       style="display:inline;fill:#008000;stroke-width:2.20605"
       id="path4-2"
       cx="114.24918"
       cy="85.585152"
       rx="51.618793"
       ry="48.790367" />
    <ellipse
       style="fill:#000000;stroke-width:0.829156"
       id="path10"
       cx="96.87365"
       cy="75.660431"
       rx="7.7781744"
       ry="12.020815" />
    <ellipse
       style="display:inline;fill:#668000"
       id="path9-8"
       cx="402.47427"
       cy="194.71487"
       rx="15.556349"
       ry="36.769554" />
    <ellipse
       style="display:inline;fill:#000000;stroke-width:0.829156"
       id="path10-6"
       cx="127.36395"
       cy="76.008621"
       rx="7.7781744"
       ry="12.020815" />
    <rect
       style="display:inline;fill:#c8ab37"
       id="rect1-6"
       width="98.994949"
       height="96.166519"
       x="61.05085"
       y="354.57275" />
    <ellipse
       style="display:inline;fill:#668000"
       id="path9-3"
       cx="137.41838"
       cy="470.53827"
       rx="15.556349"
       ry="36.769554" />
    <ellipse
       style="display:inline;fill:#668000"
       id="path9-2-7"
       cx="86.071068"
       cy="470.69556"
       rx="15.556349"
       ry="36.769554" />
    <ellipse
       style="display:inline;fill:#c8ab37;stroke-width:1.14665"
       id="path1-88"
       cx="112.66965"
       cy="443.66821"
       rx="50.204578"
       ry="24.04163" />
    <ellipse
       style="display:inline;fill:#008000"
       id="path4-1-1"
       cx="53.699974"
       cy="407.82904"
       rx="10.606602"
       ry="48.790367" />
    <ellipse
       style="display:inline;fill:#c8ab37"
       id="path3-3"
       cx="164.28844"
       cy="369.422"
       rx="14.142136"
       ry="14.849242" />
    <ellipse
       style="display:inline;fill:#c8ab37"
       id="path3-8-5"
       cx="58.023094"
       cy="369.13058"
       rx="14.142136"
       ry="14.849242" />
    <ellipse
       style="display:inline;fill:#008000;stroke-width:2.20605"
       id="path4-2-9"
       cx="110.24619"
       cy="343.99139"
       rx="51.618793"
       ry="48.790367" />
    <rect
       style="display:inline;fill:#c8ab37"
       id="rect1-6-1"
       width="98.994949"
       height="96.166519"
       x="603.41748"
       y="346.3179" />
    <ellipse
       style="display:inline;fill:#668000"
       id="path9-3-6"
       cx="679.78503"
       cy="462.28339"
       rx="15.556349"
       ry="36.769554" />
    <ellipse
       style="display:inline;fill:#668000"
       id="path9-2-7-57"
       cx="628.43774"
       cy="462.44067"
       rx="15.556349"
       ry="36.769554" />
    <ellipse
       style="display:inline;fill:#c8ab37;stroke-width:1.14665"
       id="path1-88-5"
       cx="655.03632"
       cy="435.41336"
       rx="50.204578"
       ry="24.04163" />
    <ellipse
       style="display:inline;fill:#008000"
       id="path4-1-1-1"
       cx="596.06665"
       cy="399.57419"
       rx="10.606602"
       ry="48.790367" />
    <ellipse
       style="display:inline;fill:#c8ab37"
       id="path3-3-2"
       cx="706.65509"
       cy="361.16714"
       rx="14.142136"
       ry="14.849242" />
    <ellipse
       style="display:inline;fill:#c8ab37"
       id="path3-8-5-0"
       cx="600.38977"
       cy="360.87573"
       rx="14.142136"
       ry="14.849242" />
    <ellipse
       style="display:inline;fill:#008000;stroke-width:2.20605"
       id="path4-2-9-0"
       cx="652.61285"
       cy="335.73654"
       rx="51.618793"
       ry="48.790367" />
    <ellipse
       style="display:inline;fill:#668000"
       id="path9-3-6-1"
       cx="927.86621"
       cy="440.96466"
       rx="15.556349"
       ry="36.769554" />
    <ellipse
       style="display:inline;fill:#668000"
       id="path9-2-7-57-7"
       cx="875.10474"
       cy="460.92093"
       rx="15.556349"
       ry="36.769554" />
    <rect
       style="display:inline;fill:#c8ab37"
       id="rect1-6-1-7"
       width="98.994949"
       height="96.166519"
       x="850.08447"
       y="344.79816" />
    <ellipse
       style="display:inline;fill:#c8ab37;stroke-width:1.14665"
       id="path1-88-5-7"
       cx="901.70331"
       cy="433.89362"
       rx="50.204578"
       ry="24.04163" />
    <ellipse
       style="display:inline;fill:#008000"
       id="path4-1-1-1-7"
       cx="842.73364"
       cy="398.05444"
       rx="10.606602"
       ry="48.790367" />
    <ellipse
       style="display:inline;fill:#c8ab37"
       id="path3-3-2-3"
       cx="953.32208"
       cy="359.6474"
       rx="14.142136"
       ry="14.849242" />
    <ellipse
       style="display:inline;fill:#c8ab37"
       id="path3-8-5-0-3"
       cx="847.05676"
       cy="359.35599"
       rx="14.142136"
       ry="14.849242" />
    <ellipse
       style="display:inline;fill:#008000;stroke-width:2.20605"
       id="path4-2-9-0-5"
       cx="899.27985"
       cy="334.2168"
       rx="51.618793"
       ry="48.790367" />
    <ellipse
       style="display:inline;fill:#668000"
       id="path9-3-1"
       cx="409.70978"
       cy="465.18289"
       rx="15.556349"
       ry="36.769554" />
    <ellipse
       style="display:inline;fill:#668000"
       id="path9-2-7-5"
       cx="358.36246"
       cy="448.36963"
       rx="15.556349"
       ry="36.769554" />
    <ellipse
       style="display:inline;fill:#c8ab37;stroke-width:1.14665"
       id="path1-88-4"
       cx="384.96103"
       cy="438.31287"
       rx="50.204578"
       ry="24.04163" />
    <rect
       style="display:inline;fill:#c8ab37"
       id="rect1-6-6"
       width="98.994949"
       height="96.166519"
       x="333.34225"
       y="349.21741" />
    <ellipse
       style="display:inline;fill:#008000"
       id="path4-1-1-0"
       cx="325.99136"
       cy="402.47369"
       rx="10.606602"
       ry="48.790367" />
    <ellipse
       style="display:inline;fill:#c8ab37"
       id="path3-3-9"
       cx="436.57983"
       cy="364.06665"
       rx="14.142136"
       ry="14.849242" />
    <ellipse
       style="display:inline;fill:#c8ab37"
       id="path3-8-5-7"
       cx="330.31448"
       cy="363.77524"
       rx="14.142136"
       ry="14.849242" />
    <ellipse
       style="display:inline;fill:#008000;stroke-width:2.20605"
       id="path4-2-9-3"
       cx="382.5376"
       cy="338.63605"
       rx="51.618793"
       ry="48.790367" />
    <rect
       style="display:inline;fill:#c8ab37"
       id="rect1-5"
       width="98.994949"
       height="96.166519"
       x="597.72406"
       y="96.381836" />
    <ellipse
       style="display:inline;fill:#668000"
       id="path9-0"
       cx="674.09161"
       cy="212.34735"
       rx="15.556349"
       ry="36.769554" />
    <ellipse
       style="display:inline;fill:#668000"
       id="path9-2-2"
       cx="622.74432"
       cy="212.50464"
       rx="15.556349"
       ry="36.769554" />
    <ellipse
       style="display:inline;fill:#c8ab37;stroke-width:1.14665"
       id="path1-8"
       cx="649.3429"
       cy="185.47729"
       rx="50.204578"
       ry="24.04163" />
    <ellipse
       style="display:inline;fill:#008000"
       id="path4-6"
       cx="703.08301"
       cy="148.00064"
       rx="10.606602"
       ry="48.790367" />
    <ellipse
       style="display:inline;fill:#c8ab37"
       id="path3-2"
       cx="700.96167"
       cy="111.23108"
       rx="14.142136"
       ry="14.849242" />
    <ellipse
       style="display:inline;fill:#c8ab37"
       id="path3-8-48"
       cx="594.69635"
       cy="110.93967"
       rx="14.142136"
       ry="14.849242" />
    <ellipse
       style="display:inline;fill:#008000;stroke-width:2.20605"
       id="path4-2-6"
       cx="646.91943"
       cy="85.800476"
       rx="51.618793"
       ry="48.790367" />
    <ellipse
       style="display:inline;fill:#000000;stroke-width:0.829156"
       id="path10-5"
       cx="629.54388"
       cy="75.875732"
       rx="7.7781744"
       ry="12.020815" />
    <ellipse
       style="display:inline;fill:#000000;stroke-width:0.829156"
       id="path10-6-0"
       cx="660.03418"
       cy="76.223938"
       rx="7.7781744"
       ry="12.020815" />
    <ellipse
       style="display:inline;fill:#668000"
       id="path9-0-3"
       cx="924.75854"
       cy="207.94533"
       rx="15.556349"
       ry="36.769554" />
    <ellipse
       style="display:inline;fill:#668000"
       id="path9-2-2-8"
       cx="874.82544"
       cy="188.30362"
       rx="15.556349"
       ry="36.769554" />
    <ellipse
       style="display:inline;fill:#c8ab37;stroke-width:1.14665"
       id="path1-8-9"
       cx="900.00983"
       cy="181.07527"
       rx="50.204578"
       ry="24.04163" />
    <ellipse
       style="display:inline;fill:#008000"
       id="path4-6-3"
       cx="953.74994"
       cy="143.59862"
       rx="10.606602"
       ry="48.790367" />
    <ellipse
       style="display:inline;fill:#c8ab37"
       id="path3-2-4"
       cx="951.6286"
       cy="106.82906"
       rx="14.142136"
       ry="14.849242" />
    <rect
       style="display:inline;fill:#c8ab37"
       id="rect1-5-1"
       width="98.994949"
       height="96.166519"
       x="848.39099"
       y="91.979797" />
    <ellipse
       style="display:inline;fill:#c8ab37"
       id="path3-8-48-6"
       cx="845.36328"
       cy="106.53764"
       rx="14.142136"
       ry="14.849242" />
    <ellipse
       style="display:inline;fill:#008000;stroke-width:2.20605"
       id="path4-2-6-0"
       cx="897.58636"
       cy="81.398438"
       rx="51.618793"
       ry="48.790367" />
    <ellipse
       style="display:inline;fill:#000000;stroke-width:0.829156"
       id="path10-5-6"
       cx="880.21082"
       cy="71.473694"
       rx="7.7781744"
       ry="12.020815" />
    <ellipse
       style="display:inline;fill:#000000;stroke-width:0.829156"
       id="path10-6-0-6"
       cx="910.70111"
       cy="71.821899"
       rx="7.7781744"
       ry="12.020815" />
    <rect
       style="display:inline;fill:#c8ab37"
       id="rect1-1"
       width="98.994949"
       height="96.166519"
       x="328.93518"
       y="94.305717" />
    <ellipse
       style="display:inline;fill:#668000"
       id="path9-2-9"
       cx="353.95541"
       cy="210.42854"
       rx="15.556349"
       ry="36.769554" />
    <ellipse
       style="display:inline;fill:#c8ab37;stroke-width:1.14665"
       id="path1-2"
       cx="380.55399"
       cy="183.40117"
       rx="50.204578"
       ry="24.04163" />
    <ellipse
       style="display:inline;fill:#008000"
       id="path4-7"
       cx="434.2941"
       cy="145.92451"
       rx="10.606602"
       ry="48.790367" />
    <ellipse
       style="display:inline;fill:#c8ab37"
       id="path3-5"
       cx="432.17276"
       cy="109.15496"
       rx="14.142136"
       ry="14.849242" />
    <ellipse
       style="display:inline;fill:#c8ab37"
       id="path3-8-4"
       cx="325.90744"
       cy="108.86355"
       rx="14.142136"
       ry="14.849242" />
    <ellipse
       style="display:inline;fill:#008000;stroke-width:2.20605"
       id="path4-2-3"
       cx="378.13055"
       cy="83.724358"
       rx="51.618793"
       ry="48.790367" />
    <ellipse
       style="display:inline;fill:#000000;stroke-width:0.829156"
       id="path10-1"
       cx="360.755"
       cy="73.799629"
       rx="7.7781744"
       ry="12.020815" />
    <ellipse
       style="display:inline;fill:#000000;stroke-width:0.829156"
       id="path10-6-2"
       cx="391.2453"
       cy="74.14782"
       rx="7.7781744"
       ry="12.020815" />
    <circle
       style="display:inline;fill:#008000"
       id="path11-8"
       cx="171.13857"
       cy="193.62175"
       r="10.606602" />
    <circle
       style="display:inline;fill:#008000"
       id="path11-5"
       cx="434.2706"
       cy="189.80046"
       r="10.606602" />
    <circle
       style="display:inline;fill:#008000"
       id="path11-1"
       cx="702.51324"
       cy="192.78322"
       r="10.606602" />
    <circle
       style="display:inline;fill:#008000"
       id="path11-18-4"
       cx="954.4422"
       cy="191.41064"
       r="10.606602" />
    <circle
       style="display:inline;fill:#008000"
       id="path11-18-4-0"
       cx="54.026756"
       cy="451.1579"
       r="10.606602" />
    <circle
       style="display:inline;fill:#008000"
       id="path11-18-4-0-3-0"
       cx="325.76093"
       cy="448.02588"
       r="10.606602" />
    <circle
       style="display:inline;fill:#008000"
       id="path11-18-4-0-3-0-6-9"
       cx="595.78534"
       cy="445.08478"
       r="10.606602" />
    <circle
       style="display:inline;fill:#008000"
       id="path11-18-4-0-3-0-6-9-8-5"
       cx="843.28784"
       cy="444.49893"
       r="10.606602" />
    <path
       style="fill:#000000"
       id="path12"
       d="m 103.5693,150.05919 c 4.15279,-0.008 8.26369,0.74763 12.40656,1.04366 1.96827,0.20665 3.96757,0.0101 5.90142,0.51524 1.51879,0.39673 2.96727,1.08588 4.48723,1.50928 3.13536,0.88714 6.37547,0.0196 9.56503,0.2731 1.60147,0.21047 3.42575,0.33588 4.93642,0.97723 0.48324,0.20516 1.78812,1.09974 1.3289,0.84531 -11.29673,-6.25884 -15.04576,-9.10999 -10.16873,-5.50638 3.16351,2.37863 5.1282,5.78822 6.97119,9.20819 0,0 13.53795,6.0955 13.53795,6.0955 v 0 c -1.79369,-3.53529 -3.65428,-7.09557 -6.64076,-9.78577 -6.57345,-5.03782 -13.58051,-10.30133 -21.99889,-10.65222 -3.13071,-0.0136 -6.31473,0.50394 -9.34358,-0.57375 -3.45445,-1.10769 -6.86131,-1.80852 -10.52539,-1.73374 -4.182372,-0.36961 -8.347941,-1.04641 -12.556281,-1.00604 z" />
    <path
       style="fill:#000000"
       id="path13"
       d="m 109.15841,177.31617 c -6.03036,-4.03567 -12.154718,-11.22941 -19.704584,-10.56972 -0.898815,0.0785 -2.078331,0.57005 -2.919673,0.87891 -0.392522,0.25318 -0.785045,0.50636 -1.177567,0.75953 0,0 12.554091,8.15015 12.554091,8.15015 v 0 c 0.328124,-0.16428 0.656249,-0.32855 0.984374,-0.49283 0.948293,-0.24351 1.503249,-0.47839 2.505219,-0.36314 0.5216,0.06 1.96997,0.65905 1.53069,0.37149 -19.95682,-13.06402 -12.073419,-7.21784 -7.644164,-4.33341 z" />
    <path
       style="fill:#000000"
       id="path14"
       d="m 118.52997,179.06565 c 2.23987,1.86759 1.08313,0.88942 3.46692,2.9384 0,0 13.73663,5.57854 13.73663,5.57854 v 0 c -2.31187,-2.03623 -1.2007,-1.06418 -3.33193,-2.91792 z" />
    <path
       style="display:inline;fill:#000000"
       id="path12-8"
       d="m 366.14164,152.1971 c 4.15279,-0.008 8.26369,0.74763 12.40656,1.04366 1.96827,0.20665 3.96757,0.0101 5.90142,0.51524 1.51879,0.39673 2.96727,1.08588 4.48723,1.50928 3.13536,0.88714 6.37547,0.0196 9.56503,0.2731 1.60147,0.21047 3.42575,0.33588 4.93642,0.97723 0.48324,0.20516 1.78812,1.09974 1.3289,0.84531 -11.29673,-6.25884 -15.04576,-9.10999 -10.16873,-5.50638 3.16351,2.37863 5.1282,5.78822 6.97119,9.20819 0,0 13.53795,6.0955 13.53795,6.0955 v 0 c -1.79369,-3.53529 -3.65428,-7.09557 -6.64076,-9.78577 -6.57345,-5.03782 -13.58051,-10.30133 -21.99889,-10.65222 -3.13071,-0.0136 -6.31473,0.50394 -9.34358,-0.57375 -3.45445,-1.10769 -6.86131,-1.80852 -10.52539,-1.73374 -4.18237,-0.36961 -8.34794,-1.04641 -12.55628,-1.00604 z" />
    <path
       style="display:inline;fill:#000000"
       id="path13-8"
       d="m 371.73075,179.45408 c -6.03036,-4.03567 -12.15472,-11.22941 -19.70458,-10.56972 -0.89882,0.0785 -2.07833,0.57005 -2.91968,0.87891 -0.39252,0.25318 -0.78504,0.50636 -1.17756,0.75953 0,0 12.55409,8.15015 12.55409,8.15015 v 0 c 0.32812,-0.16428 0.65625,-0.32855 0.98437,-0.49283 0.94829,-0.24351 1.50325,-0.47839 2.50522,-0.36314 0.5216,0.06 1.96997,0.65905 1.53069,0.37149 -19.95682,-13.06402 -12.07342,-7.21784 -7.64416,-4.33341 z" />
    <path
       style="display:inline;fill:#000000"
       id="path14-0"
       d="m 381.10231,181.20356 c 2.23987,1.86759 1.08313,0.88942 3.46692,2.9384 0,0 13.73663,5.57854 13.73663,5.57854 v 0 c -2.31187,-2.03623 -1.2007,-1.06418 -3.33193,-2.91792 z" />
    <path
       style="display:inline;fill:#000000"
       id="path12-8-8"
       d="m 633.75182,154.42459 c 4.15279,-0.008 8.26369,0.74763 12.40656,1.04366 1.96827,0.20665 3.96757,0.0101 5.90142,0.51524 1.51879,0.39673 2.96727,1.08588 4.48723,1.50928 3.13536,0.88714 6.37547,0.0196 9.56503,0.2731 1.60147,0.21047 3.42575,0.33588 4.93642,0.97723 0.48324,0.20516 1.78812,1.09974 1.3289,0.84531 -11.29673,-6.25884 -15.04576,-9.10999 -10.16873,-5.50638 3.16351,2.37863 5.1282,5.78822 6.97119,9.20819 0,0 13.53795,6.0955 13.53795,6.0955 v 0 c -1.79369,-3.53529 -3.65428,-7.09557 -6.64076,-9.78577 -6.57345,-5.03782 -13.58051,-10.30133 -21.99889,-10.65222 -3.13071,-0.0136 -6.31473,0.50394 -9.34358,-0.57375 -3.45445,-1.10769 -6.86131,-1.80852 -10.52539,-1.73374 -4.18237,-0.36961 -8.34794,-1.04641 -12.55628,-1.00604 z" />
    <path
       style="display:inline;fill:#000000"
       id="path13-8-9"
       d="m 639.34093,181.68157 c -6.03036,-4.03567 -12.15472,-11.22941 -19.70458,-10.56972 -0.89882,0.0785 -2.07833,0.57005 -2.91968,0.87891 -0.39252,0.25318 -0.78504,0.50636 -1.17756,0.75953 0,0 12.55409,8.15015 12.55409,8.15015 v 0 c 0.32812,-0.16428 0.65625,-0.32855 0.98437,-0.49283 0.94829,-0.24351 1.50325,-0.47839 2.50522,-0.36314 0.5216,0.06 1.96997,0.65905 1.53069,0.37149 -19.95682,-13.06402 -12.07342,-7.21784 -7.64416,-4.33341 z" />
    <path
       style="display:inline;fill:#000000"
       id="path14-0-7"
       d="m 648.71249,183.43105 c 2.23987,1.86759 1.08313,0.88942 3.46692,2.9384 0,0 13.73663,5.57854 13.73663,5.57854 v 0 c -2.31187,-2.03623 -1.2007,-1.06418 -3.33193,-2.91792 z" />
    <path
       style="display:inline;fill:#000000"
       id="path12-8-8-8"
       d="m 884.46249,148.69667 c 4.15279,-0.008 8.26369,0.74763 12.40656,1.04366 1.96827,0.20665 3.96757,0.0101 5.90142,0.51524 1.51879,0.39673 2.96727,1.08588 4.48723,1.50928 3.13536,0.88714 6.37547,0.0196 9.56503,0.2731 1.60147,0.21047 3.42575,0.33588 4.93642,0.97723 0.48324,0.20516 1.78812,1.09974 1.3289,0.84531 -11.29673,-6.25884 -15.04576,-9.10999 -10.16873,-5.50638 3.16351,2.37863 5.1282,5.78822 6.97119,9.20819 0,0 13.53795,6.0955 13.53795,6.0955 v 0 c -1.79369,-3.53529 -3.65428,-7.09557 -6.64076,-9.78577 -6.57345,-5.03782 -13.58051,-10.30133 -21.99889,-10.65222 -3.13071,-0.0136 -6.31473,0.50394 -9.34358,-0.57375 -3.45445,-1.10769 -6.86131,-1.80852 -10.52539,-1.73374 -4.18237,-0.36961 -8.34794,-1.04641 -12.55628,-1.00604 z" />
    <path
       style="display:inline;fill:#000000"
       id="path13-8-9-9"
       d="m 890.0516,175.95365 c -6.03036,-4.03567 -12.15472,-11.22941 -19.70458,-10.56972 -0.89882,0.0785 -2.07833,0.57005 -2.91968,0.87891 -0.39252,0.25318 -0.78504,0.50636 -1.17756,0.75953 0,0 12.55409,8.15015 12.55409,8.15015 v 0 c 0.32812,-0.16428 0.65625,-0.32855 0.98437,-0.49283 0.94829,-0.24351 1.50325,-0.47839 2.50522,-0.36314 0.5216,0.06 1.96997,0.65905 1.53069,0.37149 -19.95682,-13.06402 -12.07342,-7.21784 -7.64416,-4.33341 z" />
    <path
       style="display:inline;fill:#000000"
       id="path14-0-7-0"
       d="m 899.42316,177.70313 c 2.23987,1.86759 1.08313,0.88942 3.46692,2.9384 0,0 13.73663,5.57854 13.73663,5.57854 v 0 c -2.31187,-2.03623 -1.2007,-1.06418 -3.33193,-2.91792 z" />
    <path
       style="fill:#000000"
       d="m 89.095455,412.95036 c 1.885618,1.88562 3.771236,7.54247 5.656854,5.65686 1.885618,-1.88562 -7.136055,-7.87566 -5.656854,-5.65686 3.348682,5.02302 7.691554,9.3126 11.313705,14.14214 0.89443,1.19257 0.36012,3.18854 1.41422,4.24264 0.33333,0.33333 1.08088,-0.33334 1.41421,0 0.14142,0.14142 0.14142,4.10122 0,4.24264 -0.74536,0.74535 -2.08307,0.66886 -2.82843,1.41421 -0.39054,0.39055 -0.0567,6.95773 0,7.07107 0.21082,0.42164 1.08088,-0.33333 1.41422,0 1.75532,1.75532 0.36599,4.60864 1.41421,5.65685 2.01811,2.01811 5.65685,3.13938 5.65685,5.65686"
       id="path19" />
    <path
       style="fill:#000000"
       d="m 132.93608,427.0925 c 0,-1.88562 1.88561,-5.65686 0,-5.65686 -1.88562,0 0,7.54247 0,5.65686 0,-3.77124 0,-7.54248 0,-11.31371 0,-1.41422 -1,-3.24264 0,-4.24264 1.64991,-1.64992 8.24957,1.64991 9.89949,0 2.53253,-2.53253 1.41421,-14.03673 1.41421,-18.38478"
       id="path21" />
    <path
       style="display:inline;fill:#000000"
       d="m 358.14537,407.41421 c 1.88561,1.88562 3.77123,7.54247 5.65685,5.65686 1.88562,-1.88562 -7.13606,-7.87566 -5.65685,-5.65686 3.34868,5.02302 7.69155,9.3126 11.3137,14.14214 0.89443,1.19257 0.36012,3.18854 1.41422,4.24264 0.33333,0.33333 1.08088,-0.33334 1.41421,0 0.14142,0.14142 0.14142,4.10122 0,4.24264 -0.74536,0.74535 -2.08307,0.66886 -2.82843,1.41421 -0.39054,0.39055 -0.0567,6.95773 0,7.07107 0.21082,0.42164 1.08088,-0.33333 1.41422,0 1.75532,1.75532 0.36599,4.60864 1.41421,5.65685 2.01811,2.01811 5.65685,3.13938 5.65685,5.65686"
       id="path19-8" />
    <path
       style="display:inline;fill:#000000"
       d="m 401.98599,421.55635 c 0,-1.88562 1.88561,-5.65686 0,-5.65686 -1.88562,0 0,7.54247 0,5.65686 0,-3.77124 0,-7.54248 0,-11.31371 0,-1.41422 -1,-3.24264 0,-4.24264 1.64991,-1.64992 8.24957,1.64991 9.89949,0 2.53253,-2.53253 1.41421,-14.03673 1.41421,-18.38478"
       id="path21-6" />
    <path
       style="display:inline;fill:#000000"
       d="m 627.51499,402.07612 c 1.88561,1.88562 3.77123,7.54247 5.65685,5.65686 1.88562,-1.88562 -7.13606,-7.87566 -5.65685,-5.65686 3.34868,5.02302 7.69155,9.3126 11.3137,14.14214 0.89443,1.19257 0.36012,3.18854 1.41422,4.24264 0.33333,0.33333 1.08088,-0.33334 1.41421,0 0.14142,0.14142 0.14142,4.10122 0,4.24264 -0.74536,0.74535 -2.08307,0.66886 -2.82843,1.41421 -0.39054,0.39055 -0.0567,6.95773 0,7.07107 0.21082,0.42164 1.08088,-0.33333 1.41422,0 1.75532,1.75532 0.36599,4.60864 1.41421,5.65685 2.01811,2.01811 5.65685,3.13938 5.65685,5.65686"
       id="path19-8-5" />
    <path
       style="display:inline;fill:#000000"
       d="m 671.35561,416.21826 c 0,-1.88562 1.88561,-5.65686 0,-5.65686 -1.88562,0 0,7.54247 0,5.65686 0,-3.77124 0,-7.54248 0,-11.31371 0,-1.41422 -1,-3.24264 0,-4.24264 1.64991,-1.64992 8.24957,1.64991 9.89949,0 2.53253,-2.53253 1.41421,-14.03673 1.41421,-18.38478"
       id="path21-6-8" />
    <path
       style="display:inline;fill:#000000"
       d="m 870.01246,401.97561 c 1.88561,1.88562 3.77123,7.54247 5.65685,5.65686 1.88562,-1.88562 -7.13606,-7.87566 -5.65685,-5.65686 3.34868,5.02302 7.69155,9.3126 11.3137,14.14214 0.89443,1.19257 0.36012,3.18854 1.41422,4.24264 0.33333,0.33333 1.08088,-0.33334 1.41421,0 0.14142,0.14142 0.14142,4.10122 0,4.24264 -0.74536,0.74535 -2.08307,0.66886 -2.82843,1.41421 -0.39054,0.39055 -0.0567,6.95773 0,7.07107 0.21082,0.42164 1.08088,-0.33333 1.41422,0 1.75532,1.75532 0.36599,4.60864 1.41421,5.65685 2.01811,2.01811 5.65685,3.13938 5.65685,5.65686"
       id="path19-8-5-3" />
    <path
       style="display:inline;fill:#000000"
       d="m 913.85308,416.11775 c 0,-1.88562 1.88561,-5.65686 0,-5.65686 -1.88562,0 0,7.54247 0,5.65686 0,-3.77124 0,-7.54248 0,-11.31371 0,-1.41422 -1,-3.24264 0,-4.24264 1.64991,-1.64992 8.24957,1.64991 9.89949,0 2.53253,-2.53253 1.41421,-14.03673 1.41421,-18.38478"
       id="path21-6-8-9" />
    <path
       style="fill:#000000"
       d="m 83.4386,216.37468 c 0.942809,1.88561 0.942809,6.59966 2.828427,5.65685 1.885619,-0.94281 -3.771236,-7.54247 -2.828427,-5.65685 2.17051,4.34101 4.900559,8.3869 7.071068,12.72792 0.210819,0.42163 -0.333333,1.08088 0,1.41421 0.333333,0.33333 1.08088,-0.33333 1.414214,0 0.666666,0.66667 -0.421637,1.98515 0,2.82843 0.596285,1.19257 1.885618,1.88562 2.828427,2.82843"
       id="path22" />
    <rect
       style="display:inline;fill:#c8ab37"
       id="rect1-8"
       width="98.994949"
       height="96.166519"
       x="54.743477"
       y="597.07526" />
    <ellipse
       style="display:inline;fill:#668000"
       id="path9-2-5"
       cx="135.17592"
       cy="724.00366"
       rx="15.556349"
       ry="36.769554"
       transform="rotate(2.2510771)" />
    <ellipse
       style="display:inline;fill:#c8ab37;stroke-width:1.14665"
       id="path1-5"
       cx="106.36227"
       cy="686.17072"
       rx="50.204578"
       ry="24.04163" />
    <path
       style="display:inline;fill:#000000"
       id="path14-2"
       d="m 108.21962,679.9744 c 2.23987,1.86759 1.08313,0.88942 3.46692,2.9384 0,0 13.73663,5.57854 13.73663,5.57854 v 0 c -2.31187,-2.03623 -1.2007,-1.06418 -3.33193,-2.91792 z" />
    <path
       style="display:inline;fill:#000000"
       id="path12-1"
       d="m 93.258953,650.96794 c 4.15279,-0.008 8.263687,0.74763 12.406557,1.04366 1.96827,0.20665 3.96757,0.0101 5.90142,0.51524 1.51879,0.39673 2.96727,1.08588 4.48723,1.50928 3.13536,0.88714 6.37547,0.0196 9.56503,0.2731 1.60147,0.21047 3.42575,0.33588 4.93642,0.97723 0.48324,0.20516 1.78812,1.09974 1.3289,0.84531 -11.29673,-6.25884 -15.04576,-9.10999 -10.16873,-5.50638 3.16351,2.37863 5.1282,5.78822 6.97119,9.20819 0,0 13.53795,6.0955 13.53795,6.0955 v 0 c -1.79369,-3.53529 -3.65428,-7.09557 -6.64076,-9.78577 -6.57345,-5.03782 -13.58051,-10.30133 -21.99889,-10.65222 -3.13071,-0.0136 -6.31473,0.50394 -9.34358,-0.57375 -3.45445,-1.10769 -6.861307,-1.80852 -10.525387,-1.73374 -4.18237,-0.36961 -8.34794,-1.04641 -12.55628,-1.00604 z" />
    <ellipse
       style="display:inline;fill:#008000"
       id="path4-1"
       cx="126.16126"
       cy="660.00781"
       rx="10.606602"
       ry="48.790367" />
    <ellipse
       style="display:inline;fill:#c8ab37"
       id="path3-7"
       cx="125.45415"
       cy="617.58136"
       rx="14.142136"
       ry="14.849242" />
    <ellipse
       style="display:inline;fill:#008000;stroke-width:2.20605"
       id="path4-2-1"
       cx="103.93884"
       cy="586.4939"
       rx="51.618793"
       ry="48.790367" />
    <ellipse
       style="display:inline;fill:#000000;stroke-width:0.829156"
       id="path10-6-7"
       cx="81.698257"
       cy="576.91736"
       rx="7.7781744"
       ry="12.020815" />
    <circle
       style="display:inline;fill:#008000"
       id="path11-8-6"
       cx="126.88709"
       cy="705.84424"
       r="10.606602" />
    <path
       style="display:inline;fill:#000000"
       id="path13-4"
       d="m 98.848063,678.22492 c -6.03036,-4.03567 -12.15472,-11.22941 -19.70458,-10.56972 -0.89882,0.0785 -2.07833,0.57005 -2.91967,0.87891 -0.39253,0.25318 -0.78505,0.50636 -1.17757,0.75953 0,0 12.55409,8.15015 12.55409,8.15015 v 0 c 0.32812,-0.16428 0.65625,-0.32855 0.98437,-0.49283 0.9483,-0.24351 1.50325,-0.47839 2.50522,-0.36314 0.5216,0.06 1.96997,0.65905 1.53069,0.37149 -19.95682,-13.06402 -12.07342,-7.21784 -7.64416,-4.33341 z" />
    <rect
       style="display:inline;fill:#c8ab37"
       id="rect1-8-0"
       width="98.994949"
       height="96.166519"
       x="67.428482"
       y="829.49658" />
    <ellipse
       style="display:inline;fill:#668000"
       id="path9-2-5-2"
       cx="156.98032"
       cy="955.74744"
       rx="15.556349"
       ry="36.769554"
       transform="rotate(2.2510771)" />
    <ellipse
       style="display:inline;fill:#c8ab37;stroke-width:1.14665"
       id="path1-5-8"
       cx="119.04727"
       cy="918.59204"
       rx="50.204578"
       ry="24.04163" />
    <path
       style="display:inline;fill:#000000"
       id="path14-2-60"
       d="m 120.90462,912.39576 c 2.23987,1.86759 1.08313,0.88942 3.46692,2.9384 0,0 13.73663,5.57854 13.73663,5.57854 v 0 c -2.31187,-2.03623 -1.2007,-1.06418 -3.33193,-2.91792 z" />
    <path
       style="display:inline;fill:#000000"
       id="path12-1-2"
       d="m 105.94395,883.3893 c 4.15279,-0.008 8.26369,0.74763 12.40656,1.04366 1.96827,0.20665 3.96757,0.0101 5.90142,0.51524 1.51879,0.39673 2.96727,1.08588 4.48723,1.50928 3.13536,0.88714 6.37547,0.0196 9.56503,0.2731 1.60147,0.21047 3.42575,0.33588 4.93642,0.97723 0.48324,0.20516 1.78812,1.09974 1.3289,0.84531 -11.29673,-6.25884 -15.04576,-9.10999 -10.16873,-5.50638 3.16351,2.37863 5.1282,5.78822 6.97119,9.20819 0,0 13.53795,6.0955 13.53795,6.0955 v 0 c -1.79369,-3.53529 -3.65428,-7.09557 -6.64076,-9.78577 -6.57345,-5.03782 -13.58051,-10.30133 -21.99889,-10.65222 -3.13071,-0.0136 -6.31473,0.50394 -9.34358,-0.57375 -3.45445,-1.10769 -6.86131,-1.80852 -10.52539,-1.73374 -4.18237,-0.36961 -8.34794,-1.04641 -12.55628,-1.00604 z" />
    <ellipse
       style="display:inline;fill:#c8ab37"
       id="path3-7-8"
       cx="138.13914"
       cy="850.00269"
       rx="14.142136"
       ry="14.849242" />
    <ellipse
       style="display:inline;fill:#008000;stroke-width:2.20605"
       id="path4-2-1-6"
       cx="116.62384"
       cy="818.91522"
       rx="51.618793"
       ry="48.790367" />
    <ellipse
       style="display:inline;fill:#000000;stroke-width:0.829156"
       id="path10-6-7-5"
       cx="139.63809"
       cy="807.9245"
       rx="7.7781744"
       ry="12.020815" />
    <path
       style="display:inline;fill:#000000"
       id="path13-4-9"
       d="m 111.53306,910.64628 c -6.03036,-4.03567 -12.15472,-11.22941 -19.70458,-10.56972 -0.89882,0.0785 -2.07833,0.57005 -2.91967,0.87891 -0.39253,0.25318 -0.78505,0.50636 -1.17757,0.75953 0,0 12.55409,8.15015 12.55409,8.15015 v 0 c 0.32812,-0.16428 0.65625,-0.32855 0.98437,-0.49283 0.9483,-0.24351 1.50325,-0.47839 2.50522,-0.36314 0.5216,0.06 1.96997,0.65905 1.53069,0.37149 -19.95682,-13.06402 -12.07342,-7.21784 -7.64416,-4.33341 z" />
    <rect
       style="display:inline;fill:#c8ab37"
       id="rect1-8-0-9"
       width="98.994949"
       height="96.166519"
       x="330.33722"
       y="838.32501" />
    <ellipse
       style="display:inline;fill:#668000"
       id="path9-2-5-2-6"
       cx="-21.278898"
       cy="1055.8"
       rx="15.556349"
       ry="36.769554"
       transform="rotate(-23.448799)" />
    <ellipse
       style="display:inline;fill:#668000;stroke-width:1.01382"
       id="path9-2-5-2-6-0"
       cx="891.37152"
       cy="561.55524"
       rx="15.82325"
       ry="37.155376"
       transform="matrix(0.79621335,0.60501596,-0.6257383,0.78003306,0,0)"
       inkscape:transform-center-x="-17.436858"
       inkscape:transform-center-y="-7.0710737" />
    <ellipse
       style="display:inline;fill:#c8ab37;stroke-width:1.14665"
       id="path1-5-8-3"
       cx="381.95599"
       cy="927.42047"
       rx="50.204578"
       ry="24.04163" />
    <path
       style="display:inline;fill:#000000"
       id="path14-2-60-7"
       d="m 383.81335,921.22422 c 2.23987,1.86759 1.08313,0.88942 3.46692,2.9384 0,0 13.73663,5.57854 13.73663,5.57854 v 0 c -2.31187,-2.03623 -1.2007,-1.06418 -3.33193,-2.91792 z" />
    <path
       style="display:inline;fill:#000000"
       id="path12-1-2-8"
       d="m 368.85268,892.21776 c 4.15279,-0.008 8.26369,0.74763 12.40656,1.04366 1.96827,0.20665 3.96757,0.0101 5.90142,0.51524 1.51879,0.39673 2.96727,1.08588 4.48723,1.50928 3.13536,0.88714 6.37547,0.0196 9.56503,0.2731 1.60147,0.21047 3.42575,0.33588 4.93642,0.97723 0.48324,0.20516 1.78812,1.09974 1.3289,0.84531 -11.29673,-6.25884 -15.04576,-9.10999 -10.16873,-5.50638 3.16351,2.37863 5.1282,5.78822 6.97119,9.20819 0,0 13.53795,6.0955 13.53795,6.0955 v 0 c -1.79369,-3.53529 -3.65428,-7.09557 -6.64076,-9.78577 -6.57345,-5.03782 -13.58051,-10.30133 -21.99889,-10.65222 -3.13071,-0.0136 -6.31473,0.50394 -9.34358,-0.57375 -3.45445,-1.10769 -6.86131,-1.80852 -10.52539,-1.73374 -4.18237,-0.36961 -8.34794,-1.04641 -12.55628,-1.00604 z" />
    <ellipse
       style="display:inline;fill:#c8ab37"
       id="path3-7-8-2"
       cx="401.04788"
       cy="858.83112"
       rx="14.142136"
       ry="14.849242" />
    <ellipse
       style="display:inline;fill:#008000;stroke-width:2.20605"
       id="path4-2-1-6-9"
       cx="379.53256"
       cy="827.74365"
       rx="51.618793"
       ry="48.790367" />
    <ellipse
       style="display:inline;fill:#000000;stroke-width:0.829156"
       id="path10-6-7-5-1"
       cx="402.54681"
       cy="816.75293"
       rx="7.7781744"
       ry="12.020815" />
    <path
       style="display:inline;fill:#000000"
       id="path13-4-9-5"
       d="m 374.44179,919.47474 c -6.03036,-4.03567 -12.15472,-11.22941 -19.70458,-10.56972 -0.89882,0.0785 -2.07833,0.57005 -2.91967,0.87891 -0.39253,0.25318 -0.78505,0.50636 -1.17757,0.75953 0,0 12.55409,8.15015 12.55409,8.15015 v 0 c 0.32812,-0.16428 0.65625,-0.32855 0.98437,-0.49283 0.9483,-0.24351 1.50325,-0.47839 2.50522,-0.36314 0.5216,0.06 1.96997,0.65905 1.53069,0.37149 -19.95682,-13.06402 -12.07342,-7.21784 -7.64416,-4.33341 z" />
    <rect
       style="display:inline;fill:#c8ab37"
       id="rect1-8-0-9-7"
       width="98.994949"
       height="96.166519"
       x="601.21948"
       y="839.57983" />
    <ellipse
       style="display:inline;fill:#668000"
       id="path9-2-5-2-6-6"
       cx="886.71338"
       cy="756.92249"
       rx="15.556349"
       ry="36.769554"
       transform="rotate(16.694611)" />
    <ellipse
       style="display:inline;fill:#668000"
       id="path9-2-5-2-6-6-5"
       cx="177.07056"
       cy="1174.1824"
       rx="15.556349"
       ry="36.769554"
       transform="rotate(-25.819357)"
       inkscape:transform-center-x="18.384776"
       inkscape:transform-center-y="-5.6568543" />
    <ellipse
       style="display:inline;fill:#c8ab37;stroke-width:1.14665"
       id="path1-5-8-3-3"
       cx="652.83826"
       cy="928.67529"
       rx="50.204578"
       ry="24.04163" />
    <path
       style="display:inline;fill:#000000"
       id="path14-2-60-7-6"
       d="m 654.69561,922.47908 c 2.23987,1.86759 1.08313,0.88942 3.46692,2.9384 0,0 13.73663,5.57854 13.73663,5.57854 v 0 c -2.31187,-2.03623 -1.2007,-1.06418 -3.33193,-2.91792 z" />
    <path
       style="display:inline;fill:#000000"
       id="path12-1-2-8-1"
       d="m 639.73494,893.47262 c 4.15279,-0.008 8.26369,0.74763 12.40656,1.04366 1.96827,0.20665 3.96757,0.0101 5.90142,0.51524 1.51879,0.39673 2.96727,1.08588 4.48723,1.50928 3.13536,0.88714 6.37547,0.0196 9.56503,0.2731 1.60147,0.21047 3.42575,0.33588 4.93642,0.97723 0.48324,0.20516 1.78812,1.09974 1.3289,0.84531 -11.29673,-6.25884 -15.04576,-9.10999 -10.16873,-5.50638 3.16351,2.37863 5.1282,5.78822 6.97119,9.20819 0,0 13.53795,6.0955 13.53795,6.0955 v 0 c -1.79369,-3.53529 -3.65428,-7.09557 -6.64076,-9.78577 -6.57345,-5.03782 -13.58051,-10.30133 -21.99889,-10.65222 -3.13071,-0.0136 -6.31473,0.50394 -9.34358,-0.57375 -3.45445,-1.10769 -6.86131,-1.80852 -10.52539,-1.73374 -4.18237,-0.36961 -8.34794,-1.04641 -12.55628,-1.00604 z" />
    <ellipse
       style="display:inline;fill:#c8ab37"
       id="path3-7-8-2-4"
       cx="671.93018"
       cy="860.08594"
       rx="14.142136"
       ry="14.849242" />
    <ellipse
       style="display:inline;fill:#008000;stroke-width:2.20605"
       id="path4-2-1-6-9-2"
       cx="650.41486"
       cy="828.99847"
       rx="51.618793"
       ry="48.790367" />
    <ellipse
       style="display:inline;fill:#000000;stroke-width:0.829156"
       id="path10-6-7-5-1-0"
       cx="673.42908"
       cy="818.00775"
       rx="7.7781744"
       ry="12.020815" />
    <path
       style="display:inline;fill:#000000"
       id="path13-4-9-5-7"
       d="m 645.32405,920.7296 c -6.03036,-4.03567 -12.15472,-11.22941 -19.70458,-10.56972 -0.89882,0.0785 -2.07833,0.57005 -2.91967,0.87891 -0.39253,0.25318 -0.78505,0.50636 -1.17757,0.75953 0,0 12.55409,8.15015 12.55409,8.15015 v 0 c 0.32812,-0.16428 0.65625,-0.32855 0.98437,-0.49283 0.9483,-0.24351 1.50325,-0.47839 2.50522,-0.36314 0.5216,0.06 1.96997,0.65905 1.53069,0.37149 -19.95682,-13.06402 -12.07342,-7.21784 -7.64416,-4.33341 z" />
    <rect
       style="display:inline;fill:#c8ab37"
       id="rect1-8-3"
       width="98.994949"
       height="96.166519"
       x="608.01129"
       y="587.83765" />
    <ellipse
       style="display:inline;fill:#668000"
       id="path9-2-5-3"
       cx="348.0932"
       cy="931.03894"
       rx="15.556349"
       ry="36.769554"
       transform="rotate(-22.531295)" />
    <ellipse
       style="display:inline;fill:#668000"
       id="path9-2-5-3-0"
       cx="893.27722"
       cy="369.72269"
       rx="15.556349"
       ry="36.769554"
       transform="rotate(26.124851)"
       inkscape:transform-center-x="-18.384776"
       inkscape:transform-center-y="-9.899495" />
    <ellipse
       style="display:inline;fill:#c8ab37;stroke-width:1.14665"
       id="path1-5-4"
       cx="659.63007"
       cy="676.93311"
       rx="50.204578"
       ry="24.04163" />
    <path
       style="display:inline;fill:#000000"
       id="path14-2-1"
       d="m 661.48745,670.73682 c 2.23987,1.86759 1.08313,0.88942 3.46692,2.9384 0,0 13.73663,5.57854 13.73663,5.57854 v 0 c -2.31187,-2.03623 -1.2007,-1.06418 -3.33193,-2.91792 z" />
    <path
       style="display:inline;fill:#000000"
       id="path12-1-13"
       d="m 646.52678,641.73036 c 4.15279,-0.008 8.26369,0.74763 12.40656,1.04366 1.96827,0.20665 3.96757,0.0101 5.90142,0.51524 1.51879,0.39673 2.96727,1.08588 4.48723,1.50928 3.13536,0.88714 6.37547,0.0196 9.56503,0.2731 1.60147,0.21047 3.42575,0.33588 4.93642,0.97723 0.48324,0.20516 1.78812,1.09974 1.3289,0.84531 -11.29673,-6.25884 -15.04576,-9.10999 -10.16873,-5.50638 3.16351,2.37863 5.1282,5.78822 6.97119,9.20819 0,0 13.53795,6.0955 13.53795,6.0955 v 0 c -1.79369,-3.53529 -3.65428,-7.09557 -6.64076,-9.78577 -6.57345,-5.03782 -13.58051,-10.30133 -21.99889,-10.65222 -3.13071,-0.0136 -6.31473,0.50394 -9.34358,-0.57375 -3.45445,-1.10769 -6.86131,-1.80852 -10.52539,-1.73374 -4.18237,-0.36961 -8.34794,-1.04641 -12.55628,-1.00604 z" />
    <ellipse
       style="display:inline;fill:#008000"
       id="path4-1-87"
       cx="846.08911"
       cy="392.38779"
       rx="10.606602"
       ry="48.790367"
       transform="rotate(19.48909)" />
    <ellipse
       style="display:inline;fill:#c8ab37"
       id="path3-7-4"
       cx="678.72198"
       cy="608.34375"
       rx="14.142136"
       ry="14.849242" />
    <ellipse
       style="display:inline;fill:#008000;stroke-width:2.20605"
       id="path4-2-1-27"
       cx="657.20667"
       cy="577.25629"
       rx="51.618793"
       ry="48.790367" />
    <ellipse
       style="display:inline;fill:#000000;stroke-width:0.829156"
       id="path10-6-7-79"
       cx="634.96606"
       cy="567.67975"
       rx="7.7781744"
       ry="12.020815" />
    <circle
       style="display:inline;fill:#008000"
       id="path11-8-6-3"
       cx="653.28485"
       cy="696.60663"
       r="10.606602" />
    <path
       style="display:inline;fill:#000000"
       id="path13-4-1"
       d="m 652.11589,668.98734 c -6.03036,-4.03567 -12.15472,-11.22941 -19.70458,-10.56972 -0.89882,0.0785 -2.07833,0.57005 -2.91967,0.87891 -0.39253,0.25318 -0.78505,0.50636 -1.17757,0.75953 0,0 12.55409,8.15015 12.55409,8.15015 v 0 c 0.32812,-0.16428 0.65625,-0.32855 0.98437,-0.49283 0.9483,-0.24351 1.50325,-0.47839 2.50522,-0.36314 0.5216,0.06 1.96997,0.65905 1.53069,0.37149 -19.95682,-13.06402 -12.07342,-7.21784 -7.64416,-4.33341 z" />
    <rect
       style="display:inline;fill:#c8ab37"
       id="rect1-8-8"
       width="98.994949"
       height="96.166519"
       x="339.10971"
       y="589.21735" />
    <ellipse
       style="display:inline;fill:#668000"
       id="path9-2-5-5"
       cx="590.43433"
       cy="565.83246"
       rx="15.556349"
       ry="36.769554"
       transform="rotate(19.112952)" />
    <ellipse
       style="display:inline;fill:#668000"
       id="path9-2-5-5-7"
       cx="141.24451"
       cy="827.15277"
       rx="15.556349"
       ry="36.769554"
       transform="rotate(-19.548346)" />
    <ellipse
       style="display:inline;fill:#c8ab37;stroke-width:1.14665"
       id="path1-5-7"
       cx="390.72849"
       cy="678.31281"
       rx="50.204578"
       ry="24.04163" />
    <path
       style="display:inline;fill:#000000"
       id="path14-2-6"
       d="m 392.58586,672.11654 c 2.23987,1.86759 1.08313,0.88942 3.46692,2.9384 0,0 13.73663,5.57854 13.73663,5.57854 v 0 c -2.31187,-2.03623 -1.2007,-1.06418 -3.33193,-2.91792 z" />
    <path
       style="display:inline;fill:#000000"
       id="path12-1-1"
       d="m 377.62519,643.11008 c 4.15279,-0.008 8.26369,0.74763 12.40656,1.04366 1.96827,0.20665 3.96757,0.0101 5.90142,0.51524 1.51879,0.39673 2.96727,1.08588 4.48723,1.50928 3.13536,0.88714 6.37547,0.0196 9.56503,0.2731 1.60147,0.21047 3.42575,0.33588 4.93642,0.97723 0.48324,0.20516 1.78812,1.09974 1.3289,0.84531 -11.29673,-6.25884 -15.04576,-9.10999 -10.16873,-5.50638 3.16351,2.37863 5.1282,5.78822 6.97119,9.20819 0,0 13.53795,6.0955 13.53795,6.0955 v 0 c -1.79369,-3.53529 -3.65428,-7.09557 -6.64076,-9.78577 -6.57345,-5.03782 -13.58051,-10.30133 -21.99889,-10.65222 -3.13071,-0.0136 -6.31473,0.50394 -9.34358,-0.57375 -3.45445,-1.10769 -6.86131,-1.80852 -10.52539,-1.73374 -4.18237,-0.36961 -8.34794,-1.04641 -12.55628,-1.00604 z" />
    <ellipse
       style="display:inline;fill:#008000"
       id="path4-1-8"
       cx="176.1768"
       cy="750.19598"
       rx="10.606602"
       ry="48.790367"
       transform="rotate(-18.974441)" />
    <ellipse
       style="display:inline;fill:#c8ab37"
       id="path3-7-9"
       cx="409.82037"
       cy="609.72345"
       rx="14.142136"
       ry="14.849242" />
    <ellipse
       style="display:inline;fill:#008000;stroke-width:2.20605"
       id="path4-2-1-2"
       cx="388.30508"
       cy="578.63599"
       rx="51.618793"
       ry="48.790367" />
    <ellipse
       style="display:inline;fill:#000000;stroke-width:0.829156"
       id="path10-6-7-7"
       cx="366.06448"
       cy="569.05945"
       rx="7.7781744"
       ry="12.020815" />
    <circle
       style="display:inline;fill:#008000"
       id="path11-8-6-9"
       cx="425.39548"
       cy="696.57214"
       r="10.606602" />
    <path
       style="display:inline;fill:#000000"
       id="path13-4-5"
       d="m 383.2143,670.36706 c -6.03036,-4.03567 -12.15472,-11.22941 -19.70458,-10.56972 -0.89882,0.0785 -2.07833,0.57005 -2.91967,0.87891 -0.39253,0.25318 -0.78505,0.50636 -1.17757,0.75953 0,0 12.55409,8.15015 12.55409,8.15015 v 0 c 0.32812,-0.16428 0.65625,-0.32855 0.98437,-0.49283 0.9483,-0.24351 1.50325,-0.47839 2.50522,-0.36314 0.5216,0.06 1.96997,0.65905 1.53069,0.37149 -19.95682,-13.06402 -12.07342,-7.21784 -7.64416,-4.33341 z" />
    <path
       style="display:inline;fill:#000000"
       d="m 346.24396,208.55526 c 0.94281,1.88561 0.94281,6.59966 2.82843,5.65685 1.88562,-0.94281 -3.77124,-7.54247 -2.82843,-5.65685 2.17051,4.34101 4.90056,8.3869 7.07107,12.72792 0.21082,0.42163 -0.33334,1.08088 0,1.41421 0.33333,0.33333 1.08088,-0.33333 1.41421,0 0.66667,0.66667 -0.42164,1.98515 0,2.82843 0.59629,1.19257 1.88562,1.88562 2.82843,2.82843"
       id="path22-8" />
    <path
       style="display:inline;fill:#000000"
       d="m 611.18508,210.71464 c 0.94281,1.88561 0.94281,6.59966 2.82843,5.65685 1.88562,-0.94281 -3.77124,-7.54247 -2.82843,-5.65685 2.17051,4.34101 4.90056,8.3869 7.07107,12.72792 0.21082,0.42163 -0.33334,1.08088 0,1.41421 0.33333,0.33333 1.08088,-0.33333 1.41421,0 0.66667,0.66667 -0.42164,1.98515 0,2.82843 0.59629,1.19257 1.88562,1.88562 2.82843,2.82843"
       id="path22-8-7" />
    <path
       style="display:inline;fill:#000000"
       d="m 862.79525,195.64358 c 0.94281,1.88561 0.94281,6.59966 2.82843,5.65685 1.88562,-0.94281 -3.77124,-7.54247 -2.82843,-5.65685 2.17051,4.34101 4.90056,8.3869 7.07107,12.72792 0.21082,0.42163 -0.33334,1.08088 0,1.41421 0.33333,0.33333 1.08088,-0.33333 1.41421,0 0.66667,0.66667 -0.42164,1.98515 0,2.82843 0.59629,1.19257 1.88562,1.88562 2.82843,2.82843"
       id="path22-8-7-2" />
    <path
       style="fill:#000000"
       d="m 137.17872,475.17576 c 0,1.88562 -1.88562,5.65685 0,5.65685 1.88561,0 -0.3698,-7.50585 0,-5.65685 1.75142,8.75711 0.0137,19.79899 2.82842,19.79899"
       id="path23" />
    <path
       style="display:inline;fill:#000000"
       d="m 407.27369,466.59455 c 0,1.88562 -1.88562,5.65685 0,5.65685 1.88561,0 -0.3698,-7.50585 0,-5.65685 1.75142,8.75711 0.0137,19.79899 2.82842,19.79899"
       id="path23-1" />
    <path
       style="display:inline;fill:#000000"
       d="m 677.75688,461.54072 c 0,1.88562 -1.88562,5.65685 0,5.65685 1.88561,0 -0.3698,-7.50585 0,-5.65685 1.75142,8.75711 0.0137,19.79899 2.82842,19.79899"
       id="path23-1-3" />
    <path
       style="display:inline;fill:#000000"
       d="m 927.72744,452.88387 c 0,1.88562 -1.88562,5.65685 0,5.65685 1.88561,0 -0.3698,-7.50585 0,-5.65685 1.75142,8.75711 0.0137,19.79899 2.82842,19.79899"
       id="path23-1-3-8" />
  </g>
</svg>
