<?xml version="1.0" encoding="UTF-8" standalone="no"?>
<!-- Created with Inkscape (http://www.inkscape.org/) -->

<svg
   width="1024"
   height="1024"
   viewBox="0 0 1024 1024"
   version="1.1"
   id="svg1"
   inkscape:version="1.4.2 (f4327f4, 2025-05-13)"
   sodipodi:docname="npc sprite).svg"
   inkscape:export-filename="hero sprite.png"
   inkscape:export-xdpi="96"
   inkscape:export-ydpi="96"
   xmlns:inkscape="http://www.inkscape.org/namespaces/inkscape"
   xmlns:sodipodi="http://sodipodi.sourceforge.net/DTD/sodipodi-0.dtd"
   xmlns="http://www.w3.org/2000/svg"
   xmlns:svg="http://www.w3.org/2000/svg">
  <sodipodi:namedview
     id="namedview1"
     pagecolor="#ffffff"
     bordercolor="#000000"
     borderopacity="0.25"
     inkscape:showpageshadow="2"
     inkscape:pageopacity="0.0"
     inkscape:pagecheckerboard="0"
     inkscape:deskcolor="#d1d1d1"
     inkscape:document-units="mm"
     showgrid="true"
     inkscape:zoom="0.70710678"
     inkscape:cx="388.20162"
     inkscape:cy="543.76512"
     inkscape:window-width="1920"
     inkscape:window-height="1009"
     inkscape:window-x="1912"
     inkscape:window-y="-8"
     inkscape:window-maximized="1"
     inkscape:current-layer="svg1">
    <inkscape:grid
       id="grid1"
       units="px"
       originx="0"
       originy="0"
       spacingx="32"
       spacingy="32"
       empcolor="#0099e5"
       empopacity="0.30196078"
       color="#0099e5"
       opacity="0.14901961"
       empspacing="8"
       enabled="true"
       visible="true" />
  </sodipodi:namedview>
  <defs
     id="defs1" />
  <g
     inkscape:groupmode="layer"
     id="layer2"
     inkscape:label="Peasent"
     style="display:inline;fill:#c8ab37">
    <rect
       style="fill:#c8ab37"
       id="rect1"
       width="98.994949"
       height="96.166519"
       x="65.053825"
       y="96.166519" />
    <ellipse
       style="display:inline;fill:#668000"
       id="path9"
       cx="141.42134"
       cy="212.13203"
       rx="15.556349"
       ry="36.769554" />
    <ellipse
       style="display:inline;fill:#668000"
       id="path9-2"
       cx="90.074043"
       cy="212.28934"
       rx="15.556349"
       ry="36.769554" />
    <ellipse
       style="fill:#c8ab37;stroke-width:1.14665"
       id="path1"
       cx="116.67262"
       cy="185.26198"
       rx="50.204578"
       ry="24.04163" />
    <ellipse
       style="fill:#ffe680"
       id="path4"
       cx="170.41273"
       cy="147.78532"
       rx="10.606602"
       ry="48.790367" />
    <ellipse
       style="fill:#ffe680"
       id="path4-1"
       cx="57.702946"
       cy="149.42282"
       rx="10.606602"
       ry="48.790367" />
    <ellipse
       style="fill:#c8ab37"
       id="path3"
       cx="168.29141"
       cy="111.01576"
       rx="14.142136"
       ry="14.849242" />
    <ellipse
       style="fill:#c8ab37"
       id="path3-8"
       cx="62.026073"
       cy="110.72435"
       rx="14.142136"
       ry="14.849242" />
    <ellipse
       style="display:inline;fill:#ffe680;stroke-width:2.20605"
       id="path4-2"
       cx="114.24918"
       cy="85.585152"
       rx="51.618793"
       ry="48.790367" />
    <ellipse
       style="fill:#000000;stroke-width:0.829156"
       id="path10"
       cx="96.87365"
       cy="75.660431"
       rx="7.7781744"
       ry="12.020815" />
    <ellipse
       style="display:inline;fill:#668000"
       id="path9-8"
       cx="402.47427"
       cy="194.71487"
       rx="15.556349"
       ry="36.769554" />
    <ellipse
       style="display:inline;fill:#000000;stroke-width:0.829156"
       id="path10-6"
       cx="127.36395"
       cy="76.008621"
       rx="7.7781744"
       ry="12.020815" />
    <rect
       style="display:inline;fill:#c8ab37"
       id="rect1-6"
       width="98.994949"
       height="96.166519"
       x="61.05085"
       y="354.57275" />
    <ellipse
       style="display:inline;fill:#668000"
       id="path9-3"
       cx="137.41838"
       cy="470.53827"
       rx="15.556349"
       ry="36.769554" />
    <ellipse
       style="display:inline;fill:#668000"
       id="path9-2-7"
       cx="86.071068"
       cy="470.69556"
       rx="15.556349"
       ry="36.769554" />
    <ellipse
       style="display:inline;fill:#c8ab37;stroke-width:1.14665"
       id="path1-88"
       cx="112.66965"
       cy="443.66821"
       rx="50.204578"
       ry="24.04163" />
    <ellipse
       style="display:inline;fill:#ffe680"
       id="path4-29"
       cx="166.40977"
       cy="406.19156"
       rx="10.606602"
       ry="48.790367" />
    <ellipse
       style="display:inline;fill:#ffe680"
       id="path4-1-1"
       cx="53.699974"
       cy="407.82904"
       rx="10.606602"
       ry="48.790367" />
    <ellipse
       style="display:inline;fill:#c8ab37"
       id="path3-3"
       cx="164.28844"
       cy="369.422"
       rx="14.142136"
       ry="14.849242" />
    <ellipse
       style="display:inline;fill:#c8ab37"
       id="path3-8-5"
       cx="58.023094"
       cy="369.13058"
       rx="14.142136"
       ry="14.849242" />
    <ellipse
       style="display:inline;fill:#ffe680;stroke-width:2.20605"
       id="path4-2-9"
       cx="110.24619"
       cy="343.99139"
       rx="51.618793"
       ry="48.790367" />
    <rect
       style="display:inline;fill:#c8ab37"
       id="rect1-6-1"
       width="98.994949"
       height="96.166519"
       x="603.41748"
       y="346.3179" />
    <ellipse
       style="display:inline;fill:#668000"
       id="path9-3-6"
       cx="679.78503"
       cy="462.28339"
       rx="15.556349"
       ry="36.769554" />
    <ellipse
       style="display:inline;fill:#668000"
       id="path9-2-7-57"
       cx="628.43774"
       cy="462.44067"
       rx="15.556349"
       ry="36.769554" />
    <ellipse
       style="display:inline;fill:#c8ab37;stroke-width:1.14665"
       id="path1-88-5"
       cx="655.03632"
       cy="435.41336"
       rx="50.204578"
       ry="24.04163" />
    <ellipse
       style="display:inline;fill:#ffe680"
       id="path4-29-4"
       cx="708.77643"
       cy="397.93671"
       rx="10.606602"
       ry="48.790367" />
    <ellipse
       style="display:inline;fill:#ffe680"
       id="path4-1-1-1"
       cx="596.06665"
       cy="399.57419"
       rx="10.606602"
       ry="48.790367" />
    <ellipse
       style="display:inline;fill:#c8ab37"
       id="path3-3-2"
       cx="706.65509"
       cy="361.16714"
       rx="14.142136"
       ry="14.849242" />
    <ellipse
       style="display:inline;fill:#c8ab37"
       id="path3-8-5-0"
       cx="600.38977"
       cy="360.87573"
       rx="14.142136"
       ry="14.849242" />
    <ellipse
       style="display:inline;fill:#ffe680;stroke-width:2.20605"
       id="path4-2-9-0"
       cx="652.61285"
       cy="335.73654"
       rx="51.618793"
       ry="48.790367" />
    <ellipse
       style="display:inline;fill:#668000"
       id="path9-3-6-1"
       cx="927.86621"
       cy="440.96466"
       rx="15.556349"
       ry="36.769554" />
    <ellipse
       style="display:inline;fill:#668000"
       id="path9-2-7-57-7"
       cx="875.10474"
       cy="460.92093"
       rx="15.556349"
       ry="36.769554" />
    <rect
       style="display:inline;fill:#c8ab37"
       id="rect1-6-1-7"
       width="98.994949"
       height="96.166519"
       x="850.08447"
       y="344.79816" />
    <ellipse
       style="display:inline;fill:#c8ab37;stroke-width:1.14665"
       id="path1-88-5-7"
       cx="901.70331"
       cy="433.89362"
       rx="50.204578"
       ry="24.04163" />
    <ellipse
       style="display:inline;fill:#ffe680"
       id="path4-29-4-7"
       cx="955.44342"
       cy="396.41696"
       rx="10.606602"
       ry="48.790367" />
    <ellipse
       style="display:inline;fill:#ffe680"
       id="path4-1-1-1-7"
       cx="842.73364"
       cy="398.05444"
       rx="10.606602"
       ry="48.790367" />
    <ellipse
       style="display:inline;fill:#c8ab37"
       id="path3-3-2-3"
       cx="953.32208"
       cy="359.6474"
       rx="14.142136"
       ry="14.849242" />
    <ellipse
       style="display:inline;fill:#c8ab37"
       id="path3-8-5-0-3"
       cx="847.05676"
       cy="359.35599"
       rx="14.142136"
       ry="14.849242" />
    <ellipse
       style="display:inline;fill:#ffe680;stroke-width:2.20605"
       id="path4-2-9-0-5"
       cx="899.27985"
       cy="334.2168"
       rx="51.618793"
       ry="48.790367" />
    <ellipse
       style="display:inline;fill:#668000"
       id="path9-3-1"
       cx="409.70978"
       cy="465.18289"
       rx="15.556349"
       ry="36.769554" />
    <ellipse
       style="display:inline;fill:#668000"
       id="path9-2-7-5"
       cx="358.36246"
       cy="448.36963"
       rx="15.556349"
       ry="36.769554" />
    <ellipse
       style="display:inline;fill:#c8ab37;stroke-width:1.14665"
       id="path1-88-4"
       cx="384.96103"
       cy="438.31287"
       rx="50.204578"
       ry="24.04163" />
    <ellipse
       style="display:inline;fill:#ffe680"
       id="path4-29-2"
       cx="438.70117"
       cy="400.83621"
       rx="10.606602"
       ry="48.790367" />
    <rect
       style="display:inline;fill:#c8ab37"
       id="rect1-6-6"
       width="98.994949"
       height="96.166519"
       x="333.34225"
       y="349.21741" />
    <ellipse
       style="display:inline;fill:#ffe680"
       id="path4-1-1-0"
       cx="325.99136"
       cy="402.47369"
       rx="10.606602"
       ry="48.790367" />
    <ellipse
       style="display:inline;fill:#c8ab37"
       id="path3-3-9"
       cx="436.57983"
       cy="364.06665"
       rx="14.142136"
       ry="14.849242" />
    <ellipse
       style="display:inline;fill:#c8ab37"
       id="path3-8-5-7"
       cx="330.31448"
       cy="363.77524"
       rx="14.142136"
       ry="14.849242" />
    <ellipse
       style="display:inline;fill:#ffe680;stroke-width:2.20605"
       id="path4-2-9-3"
       cx="382.5376"
       cy="338.63605"
       rx="51.618793"
       ry="48.790367" />
    <rect
       style="display:inline;fill:#c8ab37"
       id="rect1-5"
       width="98.994949"
       height="96.166519"
       x="597.72406"
       y="96.381836" />
    <ellipse
       style="display:inline;fill:#668000"
       id="path9-0"
       cx="674.09161"
       cy="212.34735"
       rx="15.556349"
       ry="36.769554" />
    <ellipse
       style="display:inline;fill:#668000"
       id="path9-2-2"
       cx="622.74432"
       cy="212.50464"
       rx="15.556349"
       ry="36.769554" />
    <ellipse
       style="display:inline;fill:#c8ab37;stroke-width:1.14665"
       id="path1-8"
       cx="649.3429"
       cy="185.47729"
       rx="50.204578"
       ry="24.04163" />
    <ellipse
       style="display:inline;fill:#ffe680"
       id="path4-6"
       cx="703.08301"
       cy="148.00064"
       rx="10.606602"
       ry="48.790367" />
    <ellipse
       style="display:inline;fill:#ffe680"
       id="path4-1-0"
       cx="590.37323"
       cy="149.63812"
       rx="10.606602"
       ry="48.790367" />
    <ellipse
       style="display:inline;fill:#c8ab37"
       id="path3-2"
       cx="700.96167"
       cy="111.23108"
       rx="14.142136"
       ry="14.849242" />
    <ellipse
       style="display:inline;fill:#c8ab37"
       id="path3-8-48"
       cx="594.69635"
       cy="110.93967"
       rx="14.142136"
       ry="14.849242" />
    <ellipse
       style="display:inline;fill:#ffe680;stroke-width:2.20605"
       id="path4-2-6"
       cx="646.91943"
       cy="85.800476"
       rx="51.618793"
       ry="48.790367" />
    <ellipse
       style="display:inline;fill:#000000;stroke-width:0.829156"
       id="path10-5"
       cx="629.54388"
       cy="75.875732"
       rx="7.7781744"
       ry="12.020815" />
    <ellipse
       style="display:inline;fill:#000000;stroke-width:0.829156"
       id="path10-6-0"
       cx="660.03418"
       cy="76.223938"
       rx="7.7781744"
       ry="12.020815" />
    <ellipse
       style="display:inline;fill:#668000"
       id="path9-0-3"
       cx="924.75854"
       cy="207.94533"
       rx="15.556349"
       ry="36.769554" />
    <ellipse
       style="display:inline;fill:#668000"
       id="path9-2-2-8"
       cx="874.82544"
       cy="188.30362"
       rx="15.556349"
       ry="36.769554" />
    <ellipse
       style="display:inline;fill:#c8ab37;stroke-width:1.14665"
       id="path1-8-9"
       cx="900.00983"
       cy="181.07527"
       rx="50.204578"
       ry="24.04163" />
    <ellipse
       style="display:inline;fill:#ffe680"
       id="path4-6-3"
       cx="953.74994"
       cy="143.59862"
       rx="10.606602"
       ry="48.790367" />
    <ellipse
       style="display:inline;fill:#ffe680"
       id="path4-1-0-4"
       cx="841.04016"
       cy="145.2361"
       rx="10.606602"
       ry="48.790367" />
    <ellipse
       style="display:inline;fill:#c8ab37"
       id="path3-2-4"
       cx="951.6286"
       cy="106.82906"
       rx="14.142136"
       ry="14.849242" />
    <rect
       style="display:inline;fill:#c8ab37"
       id="rect1-5-1"
       width="98.994949"
       height="96.166519"
       x="848.39099"
       y="91.979797" />
    <ellipse
       style="display:inline;fill:#c8ab37"
       id="path3-8-48-6"
       cx="845.36328"
       cy="106.53764"
       rx="14.142136"
       ry="14.849242" />
    <ellipse
       style="display:inline;fill:#ffe680;stroke-width:2.20605"
       id="path4-2-6-0"
       cx="897.58636"
       cy="81.398438"
       rx="51.618793"
       ry="48.790367" />
    <ellipse
       style="display:inline;fill:#000000;stroke-width:0.829156"
       id="path10-5-6"
       cx="880.21082"
       cy="71.473694"
       rx="7.7781744"
       ry="12.020815" />
    <ellipse
       style="display:inline;fill:#000000;stroke-width:0.829156"
       id="path10-6-0-6"
       cx="910.70111"
       cy="71.821899"
       rx="7.7781744"
       ry="12.020815" />
    <rect
       style="display:inline;fill:#c8ab37"
       id="rect1-1"
       width="98.994949"
       height="96.166519"
       x="328.93518"
       y="94.305717" />
    <ellipse
       style="display:inline;fill:#668000"
       id="path9-2-9"
       cx="353.95541"
       cy="210.42854"
       rx="15.556349"
       ry="36.769554" />
    <ellipse
       style="display:inline;fill:#c8ab37;stroke-width:1.14665"
       id="path1-2"
       cx="380.55399"
       cy="183.40117"
       rx="50.204578"
       ry="24.04163" />
    <ellipse
       style="display:inline;fill:#ffe680"
       id="path4-7"
       cx="434.2941"
       cy="145.92451"
       rx="10.606602"
       ry="48.790367" />
    <ellipse
       style="display:inline;fill:#ffe680"
       id="path4-1-9"
       cx="321.58432"
       cy="147.56201"
       rx="10.606602"
       ry="48.790367" />
    <ellipse
       style="display:inline;fill:#c8ab37"
       id="path3-5"
       cx="432.17276"
       cy="109.15496"
       rx="14.142136"
       ry="14.849242" />
    <ellipse
       style="display:inline;fill:#c8ab37"
       id="path3-8-4"
       cx="325.90744"
       cy="108.86355"
       rx="14.142136"
       ry="14.849242" />
    <ellipse
       style="display:inline;fill:#ffe680;stroke-width:2.20605"
       id="path4-2-3"
       cx="378.13055"
       cy="83.724358"
       rx="51.618793"
       ry="48.790367" />
    <ellipse
       style="display:inline;fill:#000000;stroke-width:0.829156"
       id="path10-1"
       cx="360.755"
       cy="73.799629"
       rx="7.7781744"
       ry="12.020815" />
    <ellipse
       style="display:inline;fill:#000000;stroke-width:0.829156"
       id="path10-6-2"
       cx="391.2453"
       cy="74.14782"
       rx="7.7781744"
       ry="12.020815" />
    <circle
       style="fill:#ffeeaa"
       id="path11"
       cx="55.861435"
       cy="191.62595"
       r="10.606602" />
    <circle
       style="display:inline;fill:#ffeeaa"
       id="path11-8"
       cx="171.13857"
       cy="193.62175"
       r="10.606602" />
    <circle
       style="display:inline;fill:#ffeeaa"
       id="path11-3"
       cx="320.55991"
       cy="190.91316"
       r="10.606602" />
    <circle
       style="display:inline;fill:#ffeeaa"
       id="path11-5"
       cx="434.2706"
       cy="189.80046"
       r="10.606602" />
    <circle
       style="display:inline;fill:#ffeeaa"
       id="path11-83"
       cx="590.81476"
       cy="195.54057"
       r="10.606602" />
    <circle
       style="display:inline;fill:#ffeeaa"
       id="path11-1"
       cx="702.51324"
       cy="192.78322"
       r="10.606602" />
    <circle
       style="display:inline;fill:#ffeeaa"
       id="path11-18"
       cx="840.32953"
       cy="192.58221"
       r="10.606602" />
    <circle
       style="display:inline;fill:#ffeeaa"
       id="path11-18-4"
       cx="954.4422"
       cy="191.41064"
       r="10.606602" />
    <circle
       style="display:inline;fill:#ffeeaa"
       id="path11-18-4-0"
       cx="54.026756"
       cy="451.1579"
       r="10.606602" />
    <circle
       style="display:inline;fill:#ffeeaa"
       id="path11-18-4-0-3"
       cx="169.74875"
       cy="450.19748"
       r="10.606602" />
    <circle
       style="display:inline;fill:#ffeeaa"
       id="path11-18-4-0-3-0"
       cx="325.76093"
       cy="448.02588"
       r="10.606602" />
    <circle
       style="display:inline;fill:#ffeeaa"
       id="path11-18-4-0-3-0-6"
       cx="440.21677"
       cy="447.84213"
       r="10.606602" />
    <circle
       style="display:inline;fill:#ffeeaa"
       id="path11-18-4-0-3-0-6-9"
       cx="595.78534"
       cy="445.08478"
       r="10.606602" />
    <circle
       style="display:inline;fill:#ffeeaa"
       id="path11-18-4-0-3-0-6-9-8"
       cx="710.37115"
       cy="444.54056"
       r="10.606602" />
    <circle
       style="display:inline;fill:#ffeeaa"
       id="path11-18-4-0-3-0-6-9-8-5"
       cx="843.28784"
       cy="444.49893"
       r="10.606602" />
    <circle
       style="display:inline;fill:#ffeeaa"
       id="path11-18-4-0-3-0-6-9-8-5-7"
       cx="956.41278"
       cy="444.18527"
       r="10.606602" />
    <path
       style="fill:#000000"
       id="path12"
       d="m 103.5693,150.05919 c 4.15279,-0.008 8.26369,0.74763 12.40656,1.04366 1.96827,0.20665 3.96757,0.0101 5.90142,0.51524 1.51879,0.39673 2.96727,1.08588 4.48723,1.50928 3.13536,0.88714 6.37547,0.0196 9.56503,0.2731 1.60147,0.21047 3.42575,0.33588 4.93642,0.97723 0.48324,0.20516 1.78812,1.09974 1.3289,0.84531 -11.29673,-6.25884 -15.04576,-9.10999 -10.16873,-5.50638 3.16351,2.37863 5.1282,5.78822 6.97119,9.20819 0,0 13.53795,6.0955 13.53795,6.0955 v 0 c -1.79369,-3.53529 -3.65428,-7.09557 -6.64076,-9.78577 -6.57345,-5.03782 -13.58051,-10.30133 -21.99889,-10.65222 -3.13071,-0.0136 -6.31473,0.50394 -9.34358,-0.57375 -3.45445,-1.10769 -6.86131,-1.80852 -10.52539,-1.73374 -4.182372,-0.36961 -8.347941,-1.04641 -12.556281,-1.00604 z" />
    <path
       style="fill:#000000"
       id="path13"
       d="m 109.15841,177.31617 c -6.03036,-4.03567 -12.154718,-11.22941 -19.704584,-10.56972 -0.898815,0.0785 -2.078331,0.57005 -2.919673,0.87891 -0.392522,0.25318 -0.785045,0.50636 -1.177567,0.75953 0,0 12.554091,8.15015 12.554091,8.15015 v 0 c 0.328124,-0.16428 0.656249,-0.32855 0.984374,-0.49283 0.948293,-0.24351 1.503249,-0.47839 2.505219,-0.36314 0.5216,0.06 1.96997,0.65905 1.53069,0.37149 -19.95682,-13.06402 -12.073419,-7.21784 -7.644164,-4.33341 z" />
    <path
       style="fill:#000000"
       id="path14"
       d="m 118.52997,179.06565 c 2.23987,1.86759 1.08313,0.88942 3.46692,2.9384 0,0 13.73663,5.57854 13.73663,5.57854 v 0 c -2.31187,-2.03623 -1.2007,-1.06418 -3.33193,-2.91792 z" />
    <path
       style="display:inline;fill:#000000"
       id="path12-8"
       d="m 366.14164,152.1971 c 4.15279,-0.008 8.26369,0.74763 12.40656,1.04366 1.96827,0.20665 3.96757,0.0101 5.90142,0.51524 1.51879,0.39673 2.96727,1.08588 4.48723,1.50928 3.13536,0.88714 6.37547,0.0196 9.56503,0.2731 1.60147,0.21047 3.42575,0.33588 4.93642,0.97723 0.48324,0.20516 1.78812,1.09974 1.3289,0.84531 -11.29673,-6.25884 -15.04576,-9.10999 -10.16873,-5.50638 3.16351,2.37863 5.1282,5.78822 6.97119,9.20819 0,0 13.53795,6.0955 13.53795,6.0955 v 0 c -1.79369,-3.53529 -3.65428,-7.09557 -6.64076,-9.78577 -6.57345,-5.03782 -13.58051,-10.30133 -21.99889,-10.65222 -3.13071,-0.0136 -6.31473,0.50394 -9.34358,-0.57375 -3.45445,-1.10769 -6.86131,-1.80852 -10.52539,-1.73374 -4.18237,-0.36961 -8.34794,-1.04641 -12.55628,-1.00604 z" />
    <path
       style="display:inline;fill:#000000"
       id="path13-8"
       d="m 371.73075,179.45408 c -6.03036,-4.03567 -12.15472,-11.22941 -19.70458,-10.56972 -0.89882,0.0785 -2.07833,0.57005 -2.91968,0.87891 -0.39252,0.25318 -0.78504,0.50636 -1.17756,0.75953 0,0 12.55409,8.15015 12.55409,8.15015 v 0 c 0.32812,-0.16428 0.65625,-0.32855 0.98437,-0.49283 0.94829,-0.24351 1.50325,-0.47839 2.50522,-0.36314 0.5216,0.06 1.96997,0.65905 1.53069,0.37149 -19.95682,-13.06402 -12.07342,-7.21784 -7.64416,-4.33341 z" />
    <path
       style="display:inline;fill:#000000"
       id="path14-0"
       d="m 381.10231,181.20356 c 2.23987,1.86759 1.08313,0.88942 3.46692,2.9384 0,0 13.73663,5.57854 13.73663,5.57854 v 0 c -2.31187,-2.03623 -1.2007,-1.06418 -3.33193,-2.91792 z" />
    <path
       style="display:inline;fill:#000000"
       id="path12-8-8"
       d="m 633.75182,154.42459 c 4.15279,-0.008 8.26369,0.74763 12.40656,1.04366 1.96827,0.20665 3.96757,0.0101 5.90142,0.51524 1.51879,0.39673 2.96727,1.08588 4.48723,1.50928 3.13536,0.88714 6.37547,0.0196 9.56503,0.2731 1.60147,0.21047 3.42575,0.33588 4.93642,0.97723 0.48324,0.20516 1.78812,1.09974 1.3289,0.84531 -11.29673,-6.25884 -15.04576,-9.10999 -10.16873,-5.50638 3.16351,2.37863 5.1282,5.78822 6.97119,9.20819 0,0 13.53795,6.0955 13.53795,6.0955 v 0 c -1.79369,-3.53529 -3.65428,-7.09557 -6.64076,-9.78577 -6.57345,-5.03782 -13.58051,-10.30133 -21.99889,-10.65222 -3.13071,-0.0136 -6.31473,0.50394 -9.34358,-0.57375 -3.45445,-1.10769 -6.86131,-1.80852 -10.52539,-1.73374 -4.18237,-0.36961 -8.34794,-1.04641 -12.55628,-1.00604 z" />
    <path
       style="display:inline;fill:#000000"
       id="path13-8-9"
       d="m 639.34093,181.68157 c -6.03036,-4.03567 -12.15472,-11.22941 -19.70458,-10.56972 -0.89882,0.0785 -2.07833,0.57005 -2.91968,0.87891 -0.39252,0.25318 -0.78504,0.50636 -1.17756,0.75953 0,0 12.55409,8.15015 12.55409,8.15015 v 0 c 0.32812,-0.16428 0.65625,-0.32855 0.98437,-0.49283 0.94829,-0.24351 1.50325,-0.47839 2.50522,-0.36314 0.5216,0.06 1.96997,0.65905 1.53069,0.37149 -19.95682,-13.06402 -12.07342,-7.21784 -7.64416,-4.33341 z" />
    <path
       style="display:inline;fill:#000000"
       id="path14-0-7"
       d="m 648.71249,183.43105 c 2.23987,1.86759 1.08313,0.88942 3.46692,2.9384 0,0 13.73663,5.57854 13.73663,5.57854 v 0 c -2.31187,-2.03623 -1.2007,-1.06418 -3.33193,-2.91792 z" />
    <path
       style="display:inline;fill:#000000"
       id="path12-8-8-8"
       d="m 884.46249,148.69667 c 4.15279,-0.008 8.26369,0.74763 12.40656,1.04366 1.96827,0.20665 3.96757,0.0101 5.90142,0.51524 1.51879,0.39673 2.96727,1.08588 4.48723,1.50928 3.13536,0.88714 6.37547,0.0196 9.56503,0.2731 1.60147,0.21047 3.42575,0.33588 4.93642,0.97723 0.48324,0.20516 1.78812,1.09974 1.3289,0.84531 -11.29673,-6.25884 -15.04576,-9.10999 -10.16873,-5.50638 3.16351,2.37863 5.1282,5.78822 6.97119,9.20819 0,0 13.53795,6.0955 13.53795,6.0955 v 0 c -1.79369,-3.53529 -3.65428,-7.09557 -6.64076,-9.78577 -6.57345,-5.03782 -13.58051,-10.30133 -21.99889,-10.65222 -3.13071,-0.0136 -6.31473,0.50394 -9.34358,-0.57375 -3.45445,-1.10769 -6.86131,-1.80852 -10.52539,-1.73374 -4.18237,-0.36961 -8.34794,-1.04641 -12.55628,-1.00604 z" />
    <path
       style="display:inline;fill:#000000"
       id="path13-8-9-9"
       d="m 890.0516,175.95365 c -6.03036,-4.03567 -12.15472,-11.22941 -19.70458,-10.56972 -0.89882,0.0785 -2.07833,0.57005 -2.91968,0.87891 -0.39252,0.25318 -0.78504,0.50636 -1.17756,0.75953 0,0 12.55409,8.15015 12.55409,8.15015 v 0 c 0.32812,-0.16428 0.65625,-0.32855 0.98437,-0.49283 0.94829,-0.24351 1.50325,-0.47839 2.50522,-0.36314 0.5216,0.06 1.96997,0.65905 1.53069,0.37149 -19.95682,-13.06402 -12.07342,-7.21784 -7.64416,-4.33341 z" />
    <path
       style="display:inline;fill:#000000"
       id="path14-0-7-0"
       d="m 899.42316,177.70313 c 2.23987,1.86759 1.08313,0.88942 3.46692,2.9384 0,0 13.73663,5.57854 13.73663,5.57854 v 0 c -2.31187,-2.03623 -1.2007,-1.06418 -3.33193,-2.91792 z" />
    <path
       style="fill:#000000"
       d="m 89.095455,412.95036 c 1.885618,1.88562 3.771236,7.54247 5.656854,5.65686 1.885618,-1.88562 -7.136055,-7.87566 -5.656854,-5.65686 3.348682,5.02302 7.691554,9.3126 11.313705,14.14214 0.89443,1.19257 0.36012,3.18854 1.41422,4.24264 0.33333,0.33333 1.08088,-0.33334 1.41421,0 0.14142,0.14142 0.14142,4.10122 0,4.24264 -0.74536,0.74535 -2.08307,0.66886 -2.82843,1.41421 -0.39054,0.39055 -0.0567,6.95773 0,7.07107 0.21082,0.42164 1.08088,-0.33333 1.41422,0 1.75532,1.75532 0.36599,4.60864 1.41421,5.65685 2.01811,2.01811 5.65685,3.13938 5.65685,5.65686"
       id="path19" />
    <path
       style="fill:#000000"
       d="m 132.93608,427.0925 c 0,-1.88562 1.88561,-5.65686 0,-5.65686 -1.88562,0 0,7.54247 0,5.65686 0,-3.77124 0,-7.54248 0,-11.31371 0,-1.41422 -1,-3.24264 0,-4.24264 1.64991,-1.64992 8.24957,1.64991 9.89949,0 2.53253,-2.53253 1.41421,-14.03673 1.41421,-18.38478"
       id="path21" />
    <path
       style="display:inline;fill:#000000"
       d="m 358.14537,407.41421 c 1.88561,1.88562 3.77123,7.54247 5.65685,5.65686 1.88562,-1.88562 -7.13606,-7.87566 -5.65685,-5.65686 3.34868,5.02302 7.69155,9.3126 11.3137,14.14214 0.89443,1.19257 0.36012,3.18854 1.41422,4.24264 0.33333,0.33333 1.08088,-0.33334 1.41421,0 0.14142,0.14142 0.14142,4.10122 0,4.24264 -0.74536,0.74535 -2.08307,0.66886 -2.82843,1.41421 -0.39054,0.39055 -0.0567,6.95773 0,7.07107 0.21082,0.42164 1.08088,-0.33333 1.41422,0 1.75532,1.75532 0.36599,4.60864 1.41421,5.65685 2.01811,2.01811 5.65685,3.13938 5.65685,5.65686"
       id="path19-8" />
    <path
       style="display:inline;fill:#000000"
       d="m 401.98599,421.55635 c 0,-1.88562 1.88561,-5.65686 0,-5.65686 -1.88562,0 0,7.54247 0,5.65686 0,-3.77124 0,-7.54248 0,-11.31371 0,-1.41422 -1,-3.24264 0,-4.24264 1.64991,-1.64992 8.24957,1.64991 9.89949,0 2.53253,-2.53253 1.41421,-14.03673 1.41421,-18.38478"
       id="path21-6" />
    <path
       style="display:inline;fill:#000000"
       d="m 627.51499,402.07612 c 1.88561,1.88562 3.77123,7.54247 5.65685,5.65686 1.88562,-1.88562 -7.13606,-7.87566 -5.65685,-5.65686 3.34868,5.02302 7.69155,9.3126 11.3137,14.14214 0.89443,1.19257 0.36012,3.18854 1.41422,4.24264 0.33333,0.33333 1.08088,-0.33334 1.41421,0 0.14142,0.14142 0.14142,4.10122 0,4.24264 -0.74536,0.74535 -2.08307,0.66886 -2.82843,1.41421 -0.39054,0.39055 -0.0567,6.95773 0,7.07107 0.21082,0.42164 1.08088,-0.33333 1.41422,0 1.75532,1.75532 0.36599,4.60864 1.41421,5.65685 2.01811,2.01811 5.65685,3.13938 5.65685,5.65686"
       id="path19-8-5" />
    <path
       style="display:inline;fill:#000000"
       d="m 671.35561,416.21826 c 0,-1.88562 1.88561,-5.65686 0,-5.65686 -1.88562,0 0,7.54247 0,5.65686 0,-3.77124 0,-7.54248 0,-11.31371 0,-1.41422 -1,-3.24264 0,-4.24264 1.64991,-1.64992 8.24957,1.64991 9.89949,0 2.53253,-2.53253 1.41421,-14.03673 1.41421,-18.38478"
       id="path21-6-8" />
    <path
       style="display:inline;fill:#000000"
       d="m 870.01246,401.97561 c 1.88561,1.88562 3.77123,7.54247 5.65685,5.65686 1.88562,-1.88562 -7.13606,-7.87566 -5.65685,-5.65686 3.34868,5.02302 7.69155,9.3126 11.3137,14.14214 0.89443,1.19257 0.36012,3.18854 1.41422,4.24264 0.33333,0.33333 1.08088,-0.33334 1.41421,0 0.14142,0.14142 0.14142,4.10122 0,4.24264 -0.74536,0.74535 -2.08307,0.66886 -2.82843,1.41421 -0.39054,0.39055 -0.0567,6.95773 0,7.07107 0.21082,0.42164 1.08088,-0.33333 1.41422,0 1.75532,1.75532 0.36599,4.60864 1.41421,5.65685 2.01811,2.01811 5.65685,3.13938 5.65685,5.65686"
       id="path19-8-5-3" />
    <path
       style="display:inline;fill:#000000"
       d="m 913.85308,416.11775 c 0,-1.88562 1.88561,-5.65686 0,-5.65686 -1.88562,0 0,7.54247 0,5.65686 0,-3.77124 0,-7.54248 0,-11.31371 0,-1.41422 -1,-3.24264 0,-4.24264 1.64991,-1.64992 8.24957,1.64991 9.89949,0 2.53253,-2.53253 1.41421,-14.03673 1.41421,-18.38478"
       id="path21-6-8-9" />
    <path
       style="fill:#000000"
       d="m 83.4386,216.37468 c 0.942809,1.88561 0.942809,6.59966 2.828427,5.65685 1.885619,-0.94281 -3.771236,-7.54247 -2.828427,-5.65685 2.17051,4.34101 4.900559,8.3869 7.071068,12.72792 0.210819,0.42163 -0.333333,1.08088 0,1.41421 0.333333,0.33333 1.08088,-0.33333 1.414214,0 0.666666,0.66667 -0.421637,1.98515 0,2.82843 0.596285,1.19257 1.885618,1.88562 2.828427,2.82843"
       id="path22" />
    <path
       style="display:inline;fill:#000000"
       d="m 346.24396,208.55526 c 0.94281,1.88561 0.94281,6.59966 2.82843,5.65685 1.88562,-0.94281 -3.77124,-7.54247 -2.82843,-5.65685 2.17051,4.34101 4.90056,8.3869 7.07107,12.72792 0.21082,0.42163 -0.33334,1.08088 0,1.41421 0.33333,0.33333 1.08088,-0.33333 1.41421,0 0.66667,0.66667 -0.42164,1.98515 0,2.82843 0.59629,1.19257 1.88562,1.88562 2.82843,2.82843"
       id="path22-8" />
    <path
       style="display:inline;fill:#000000"
       d="m 611.18508,210.71464 c 0.94281,1.88561 0.94281,6.59966 2.82843,5.65685 1.88562,-0.94281 -3.77124,-7.54247 -2.82843,-5.65685 2.17051,4.34101 4.90056,8.3869 7.07107,12.72792 0.21082,0.42163 -0.33334,1.08088 0,1.41421 0.33333,0.33333 1.08088,-0.33333 1.41421,0 0.66667,0.66667 -0.42164,1.98515 0,2.82843 0.59629,1.19257 1.88562,1.88562 2.82843,2.82843"
       id="path22-8-7" />
    <path
       style="display:inline;fill:#000000"
       d="m 862.79525,195.64358 c 0.94281,1.88561 0.94281,6.59966 2.82843,5.65685 1.88562,-0.94281 -3.77124,-7.54247 -2.82843,-5.65685 2.17051,4.34101 4.90056,8.3869 7.07107,12.72792 0.21082,0.42163 -0.33334,1.08088 0,1.41421 0.33333,0.33333 1.08088,-0.33333 1.41421,0 0.66667,0.66667 -0.42164,1.98515 0,2.82843 0.59629,1.19257 1.88562,1.88562 2.82843,2.82843"
       id="path22-8-7-2" />
    <path
       style="fill:#000000"
       d="m 137.17872,475.17576 c 0,1.88562 -1.88562,5.65685 0,5.65685 1.88561,0 -0.3698,-7.50585 0,-5.65685 1.75142,8.75711 0.0137,19.79899 2.82842,19.79899"
       id="path23" />
    <path
       style="display:inline;fill:#000000"
       d="m 407.27369,466.59455 c 0,1.88562 -1.88562,5.65685 0,5.65685 1.88561,0 -0.3698,-7.50585 0,-5.65685 1.75142,8.75711 0.0137,19.79899 2.82842,19.79899"
       id="path23-1" />
    <path
       style="display:inline;fill:#000000"
       d="m 677.75688,461.54072 c 0,1.88562 -1.88562,5.65685 0,5.65685 1.88561,0 -0.3698,-7.50585 0,-5.65685 1.75142,8.75711 0.0137,19.79899 2.82842,19.79899"
       id="path23-1-3" />
    <path
       style="display:inline;fill:#000000"
       d="m 927.72744,452.88387 c 0,1.88562 -1.88562,5.65685 0,5.65685 1.88561,0 -0.3698,-7.50585 0,-5.65685 1.75142,8.75711 0.0137,19.79899 2.82842,19.79899"
       id="path23-1-3-8" />
  </g>
</svg>
